<?xml version="1.0" encoding="UTF-8"?>
<svg id="Camada_1" data-name="Camada 1" xmlns="http://www.w3.org/2000/svg" xmlns:xlink="http://www.w3.org/1999/xlink" viewBox="0 0 812.43 710.32">
  <defs>
    <style>
      .cls-1 {
        fill: url(#linear-gradient);
      }

      .cls-2 {
        fill: #f99d1c;
      }

      .cls-3 {
        fill: url(#linear-gradient-3);
      }

      .cls-4 {
        fill: url(#linear-gradient-4);
      }

      .cls-5 {
        fill: url(#linear-gradient-2);
      }

      .cls-6 {
        font-family: Apple-Chancery, 'Apple Chancery';
        font-size: 72px;
        letter-spacing: .2em;
      }
    </style>
    <linearGradient id="linear-gradient" x1="665.76" y1="120.97" x2="812.43" y2="120.97" gradientUnits="userSpaceOnUse">
      <stop offset="0" stop-color="#ed1c24"/>
      <stop offset="1" stop-color="#ffd400"/>
    </linearGradient>
    <linearGradient id="linear-gradient-2" x1="147.9" y1="213.15" x2="812.43" y2="213.15" gradientUnits="userSpaceOnUse">
      <stop offset="0" stop-color="#f04e23"/>
      <stop offset=".8" stop-color="#ffd400"/>
      <stop offset="1" stop-color="#fff200"/>
    </linearGradient>
    <linearGradient id="linear-gradient-3" x1="593.68" y1="368.05" x2="759.57" y2="368.05" gradientUnits="userSpaceOnUse">
      <stop offset="0" stop-color="#ba141a"/>
      <stop offset="1" stop-color="#ed1c24"/>
    </linearGradient>
    <linearGradient id="linear-gradient-4" x1="39.52" y1="368.75" x2="665.76" y2="368.75" gradientUnits="userSpaceOnUse">
      <stop offset="0" stop-color="#f04e23"/>
      <stop offset="1" stop-color="#f37021"/>
    </linearGradient>
  </defs>
  <g>
    <path class="cls-1" d="M759.57,241.94L812.43,0l-146.67,241.66c31.34-1.9,62.69-1.88,93.81,.28Z"/>
    <path class="cls-5" d="M665.76,241.66L812.43,0,147.9,426.31c91.81-54.98,186.83-104,288-138.25,73.94-25.03,151.85-41.66,229.86-46.39Z"/>
    <path class="cls-3" d="M665.76,241.66l-72.08,118.76,110.42,135.42,55.47-253.9c-31.12-2.16-62.48-2.18-93.81-.28Z"/>
    <path class="cls-4" d="M593.68,360.42l72.08-118.76c-78.02,4.74-155.93,21.36-229.86,46.39-101.17,34.25-196.19,83.27-288,138.25l-108.38,69.53,554.17-135.42Z"/>
  </g>
  <path class="cls-2" d="M665.76,242.26s-1.68,.04-4.82,.26c-.78,.05-1.66,.1-2.63,.16-.96,.08-2.02,.17-3.15,.27-2.27,.22-4.89,.38-7.81,.7-2.92,.31-6.15,.66-9.67,1.04-3.51,.4-7.3,.94-11.36,1.46-2.02,.27-4.12,.54-6.27,.82-2.14,.34-4.35,.69-6.61,1.05-4.52,.74-9.3,1.4-14.25,2.26-9.88,1.86-20.62,3.65-31.87,6.13-2.82,.59-5.67,1.19-8.57,1.8-2.89,.61-5.82,1.19-8.76,1.93-5.88,1.4-11.89,2.83-18,4.28-1.53,.36-3.06,.72-4.6,1.09-1.54,.35-3.09,.73-4.62,1.16-3.08,.83-6.18,1.66-9.3,2.5-6.24,1.67-12.57,3.35-18.94,5.05-6.32,1.88-12.69,3.77-19.09,5.67-3.2,.95-6.4,1.91-9.61,2.86l-4.81,1.43c-1.6,.5-3.18,1.05-4.77,1.57-6.37,2.09-12.73,4.18-19.07,6.27-6.33,2.11-12.69,4.06-18.86,6.42-6.2,2.25-12.36,4.48-18.43,6.68-3.04,1.1-6.07,2.18-9.07,3.26-1.5,.54-3,1.08-4.49,1.62-1.47,.58-2.94,1.16-4.4,1.74-11.69,4.62-22.99,9.08-33.71,13.31-2.7,1.02-5.29,2.17-7.86,3.28-2.57,1.11-5.1,2.2-7.59,3.27-4.99,2.13-9.81,4.19-14.43,6.17-4.63,1.97-9.06,3.87-13.28,5.67-1.05,.45-2.11,.87-3.12,1.33-1.01,.47-2.01,.93-3,1.39-1.97,.91-3.89,1.8-5.74,2.66-7.43,3.42-13.91,6.4-19.24,8.86-10.7,4.86-16.82,7.64-16.82,7.64,0,0,5.96-3.1,16.38-8.53,5.23-2.69,11.58-5.95,18.86-9.7,1.82-.93,3.71-1.89,5.64-2.88,.97-.5,1.95-1,2.95-1.51,1-.5,2.04-.96,3.07-1.46,4.17-1.93,8.55-3.97,13.12-6.09,4.57-2.12,9.34-4.33,14.27-6.62,2.47-1.14,4.98-2.29,7.53-3.46,2.55-1.17,5.13-2.39,7.81-3.46,10.67-4.44,21.92-9.13,33.57-13.97,1.46-.6,2.92-1.2,4.39-1.8,1.49-.56,2.98-1.12,4.48-1.68,3-1.12,6.02-2.26,9.06-3.4,6.08-2.27,12.24-4.56,18.45-6.87,6.18-2.39,12.55-4.38,18.9-6.52,6.36-2.12,12.74-4.24,19.13-6.37,1.6-.52,3.19-1.07,4.8-1.56l4.84-1.42c3.23-.95,6.45-1.89,9.66-2.84,6.43-1.88,12.84-3.76,19.2-5.61,6.42-1.65,12.78-3.29,19.07-4.9,3.15-.8,6.27-1.6,9.38-2.39,1.55-.41,3.1-.77,4.66-1.11,1.55-.35,3.1-.69,4.64-1.03,6.16-1.36,12.22-2.7,18.15-4.02,2.96-.68,5.92-1.2,8.83-1.75,2.92-.55,5.8-1.08,8.64-1.62,11.34-2.28,22.18-3.75,32.15-5.31,4.99-.71,9.8-1.25,14.37-1.82,2.28-.27,4.51-.54,6.67-.8,2.17-.2,4.28-.39,6.32-.58,4.08-.35,7.9-.78,11.44-1,3.54-.22,6.79-.42,9.73-.6,2.93-.19,5.56-.22,7.85-.3,1.14-.03,2.2-.07,3.17-.09,.97,0,1.85-.01,2.64-.02,3.15-.04,4.83,.01,4.83,.01Z"/>
  <text class="cls-6" transform="translate(56.29 597.33)"><tspan x="0" y="0">Transit Tracker</tspan></text>
</svg>